<?xml version="1.0" encoding="iso-8859-1"?>
<!-- Generator: Adobe Illustrator 19.0.0, SVG Export Plug-In . SVG Version: 6.00 Build 0)  -->
<svg version="1.1" id="Capa_1" xmlns="http://www.w3.org/2000/svg" xmlns:xlink="http://www.w3.org/1999/xlink" x="0px" y="0px"
	 viewBox="0 0 512.337 512.337" style="enable-background:new 0 0 512.337 512.337;" xml:space="preserve">
<g transform="translate(-1)">
	<g>
		<g>
			<path d="M7.407,222.096c3.062,0.788,6.308-0.182,8.436-2.519l19.627-19.345v260.736H9.87c-4.713,0-8.533,3.82-8.533,8.533
				s3.82,8.533,8.533,8.533h494.933c4.713,0,8.533-3.82,8.533-8.533s-3.82-8.533-8.533-8.533h-8.533V314.596l7.125,1.186
				c0.465,0.081,0.936,0.121,1.408,0.119c4.432-0.012,8.116-3.414,8.481-7.831c0.365-4.417-2.712-8.377-7.082-9.116l-61.133-10.189
				V94.035c0-51.841-42.026-93.867-93.867-93.867s-93.867,42.026-93.867,93.867v14.037l-56.644-21.99
				c-1.986-0.777-4.192-0.777-6.178,0L84.605,128.749c-1.088,0.42-2.078,1.059-2.91,1.877L38.03,173.711l-0.111,0.111L3.897,207.426
				c-2.373,2.088-3.398,5.318-2.662,8.392C1.97,218.893,4.345,221.309,7.407,222.096z M124.336,460.968l53.7-53.7
				c3.234-3.348,3.188-8.671-0.104-11.962c-3.292-3.292-8.614-3.338-11.962-0.104l-53.7,53.7V302.368l158.601,158.601H124.336z
				 M282.937,448.902L124.336,290.302h146.534l-53.7,53.7c-3.331,3.332-3.331,8.734,0,12.066l-0.026,0.043
				c3.332,3.331,8.734,3.331,12.066,0l53.726-53.743V448.902z M479.203,311.754v149.214H359.737V325.98l92.459,15.428
				c0.466,0.069,0.937,0.1,1.408,0.094c4.432-0.012,8.116-3.414,8.481-7.831c0.365-4.417-2.712-8.377-7.082-9.116l-95.266-15.881
				v-16.836L479.203,311.754z M274.403,94.035c0.052-42.394,34.406-76.748,76.8-76.8c42.415,0,76.8,34.385,76.8,76.8v17.067H393.87
				c-4.713,0-8.533,3.82-8.533,8.533s3.821,8.533,8.533,8.533h34.133v25.6h-51.2c-4.713,0-8.533,3.82-8.533,8.533
				s3.82,8.533,8.533,8.533h51.2v25.6h-8.533c-4.713,0-8.533,3.82-8.533,8.533s3.82,8.533,8.533,8.533h8.533v25.6h-42.667
				c-4.713,0-8.533,3.82-8.533,8.533s3.82,8.533,8.533,8.533h42.667v29.747l-68.267-11.375v-74.308l19.627,19.345
				c3.401,2.992,8.546,2.806,11.722-0.424s3.274-8.378,0.225-11.727l-77.824-76.8c-0.831-0.818-1.822-1.457-2.91-1.877l-1.468-0.58
				h50.628c4.713,0,8.533-3.82,8.533-8.533s-3.82-8.533-8.533-8.533h-85.333V94.035z M52.537,183.388l39.893-39.373l105.173-40.823
				l105.173,40.823l40.004,39.484c0,0.196-0.111,0.367-0.111,0.563v276.907h-42.667v-179.2c0-4.713-3.82-8.533-8.533-8.533H103.737
				c-4.713,0-8.533,3.821-8.533,8.533v179.2H52.537V183.388z"/>
			<path d="M163.47,247.635h68.267c4.713,0,8.533-3.82,8.533-8.533v-68.267c0-4.713-3.82-8.533-8.533-8.533H163.47
				c-4.713,0-8.533,3.82-8.533,8.533v68.267C154.937,243.814,158.757,247.635,163.47,247.635z M172.003,179.368h51.2v51.2h-51.2
				V179.368z"/>
			<path d="M86.67,495.102H9.87c-4.713,0-8.533,3.82-8.533,8.533s3.82,8.533,8.533,8.533h76.8c4.713,0,8.533-3.821,8.533-8.533
				S91.383,495.102,86.67,495.102z"/>
			<path d="M504.803,495.102h-384c-4.713,0-8.533,3.82-8.533,8.533s3.82,8.533,8.533,8.533h384c4.713,0,8.533-3.821,8.533-8.533
				S509.516,495.102,504.803,495.102z"/>
			<path d="M445.07,358.568h-59.733c-4.713,0-8.533,3.82-8.533,8.533v42.667c0,4.713,3.82,8.533,8.533,8.533h59.733
				c4.713,0,8.533-3.82,8.533-8.533v-42.667C453.603,362.389,449.783,358.568,445.07,358.568z M436.537,401.235H393.87v-25.6h42.667
				V401.235z"/>
			<path d="M103.737,213.502h25.6c4.713,0,8.533-3.821,8.533-8.533s-3.82-8.533-8.533-8.533h-25.6c-4.713,0-8.533,3.82-8.533,8.533
				S99.024,213.502,103.737,213.502z"/>
			<path d="M265.87,213.502h25.6c4.713,0,8.533-3.821,8.533-8.533s-3.82-8.533-8.533-8.533h-25.6c-4.713,0-8.533,3.82-8.533,8.533
				S261.157,213.502,265.87,213.502z"/>
		</g>
	</g>
</g>
<g>
</g>
<g>
</g>
<g>
</g>
<g>
</g>
<g>
</g>
<g>
</g>
<g>
</g>
<g>
</g>
<g>
</g>
<g>
</g>
<g>
</g>
<g>
</g>
<g>
</g>
<g>
</g>
<g>
</g>
</svg>
