<svg id="Capa_1" enable-background="new 0 0 512 512" height="512" viewBox="0 0 512 512" width="512" xmlns="http://www.w3.org/2000/svg"><g><path d="m429.292 241.583-39.693 19.847c-4.605-38.846-20.44-74.709-44.637-100.653 7.76-12.388 12.857-26.302 14.952-40.777h16.086c8.284 0 15-6.716 15-15s-6.716-15-15-15h-16.076c-7.301-50.817-51.119-90-103.924-90-57.897 0-105 47.103-105 105 0 19.787 5.625 39.154 16.038 55.777-24.196 25.944-40.032 61.807-44.636 100.653l-39.693-19.847c-10.016-5.007-21.709 2.386-21.709 13.417 0 141.71 87.477 257 195 257s195-115.29 195-257c0-11.216-11.87-18.335-21.708-13.417zm-231.008-88.685c-11.146-13.413-17.284-30.423-17.284-47.898 0-41.355 33.645-75 75-75s75 33.645 75 75c0 17.475-6.138 34.485-17.284 47.898-5.179 6.232-4.472 15.451 1.598 20.821 23.104 20.443 38.682 51.511 43.823 86.079l-36.429-18.214c-4.223-2.111-9.193-2.111-13.416 0l-53.292 26.645-53.292-26.646c-4.223-2.111-9.193-2.111-13.416 0l-36.429 18.214c5.142-34.568 20.72-65.637 43.824-86.08 6.068-5.368 6.775-14.587 1.597-20.819zm172.946 263.873c-31.188 42.064-72.111 65.229-115.23 65.229s-84.042-23.165-115.23-65.229c-27.713-37.376-44.664-85.318-48.778-137.005l37.3 18.65c4.264 2.132 9.318 2.049 13.416 0l53.292-26.645 53.292 26.646c4.223 2.111 9.193 2.111 13.416 0l53.292-26.646 53.292 26.646c4.294 2.147 9.352 2.032 13.416 0l37.3-18.65c-4.115 51.686-21.065 99.628-48.778 137.004z"/><circle cx="286" cy="105" r="15"/></g></svg>