<?xml version="1.0" encoding="iso-8859-1"?>
<!-- Generator: Adobe Illustrator 19.0.0, SVG Export Plug-In . SVG Version: 6.00 Build 0)  -->
<svg version="1.1" id="Capa_1" xmlns="http://www.w3.org/2000/svg" xmlns:xlink="http://www.w3.org/1999/xlink" x="0px" y="0px"
	 viewBox="0 0 511.999 511.999" style="enable-background:new 0 0 511.999 511.999;" xml:space="preserve">
<g>
	<g>
		<path d="M479.129,281.624c1.587-1.381,3.153-2.821,4.683-4.351c14.023-14.023,23.889-32.92,27.066-51.843
			c3.515-20.927-1.297-39.197-13.546-51.448c-12.25-12.25-30.522-17.063-51.448-13.546c-18.922,3.178-37.817,13.042-51.842,27.066
			c-14.211,14.212-22.036,31.015-22.628,48.591c-0.546,16.261,5.349,31.735,16.62,43.843H309.76
			c11.272-12.108,17.166-27.582,16.62-43.843c-0.592-17.576-8.417-34.378-22.628-48.591c-14.023-14.023-32.92-23.889-51.843-27.066
			c-20.925-3.518-39.197,1.296-51.448,13.546c-12.25,12.25-17.061,30.521-13.546,51.448c3.178,18.923,13.043,37.818,27.067,51.843
			c0.915,0.915,1.842,1.801,2.777,2.663H109.655c0.936-0.862,1.862-1.748,2.777-2.663c14.023-14.023,23.889-32.92,27.066-51.843
			c3.515-20.927-1.297-39.197-13.546-51.448c-12.249-12.249-30.518-17.062-51.448-13.546c-18.923,3.178-37.818,13.042-51.843,27.066
			C8.45,201.715,0.626,218.516,0.035,236.094c-0.573,17.034,5.909,33.214,18.251,45.556c1.468,1.468,2.991,2.853,4.563,4.153
			C9.22,293.551,0,308.197,0,324.966v37.936c0,24.829,20.2,45.029,45.029,45.029h421.92c24.829,0,45.029-20.2,45.029-45.029v-37.936
			C511.978,304.358,498.058,286.951,479.129,281.624z M391.403,236.764c0.418-12.415,6.221-24.56,16.781-35.12
			c11.15-11.15,26.098-18.98,41.012-21.485c3.348-0.563,6.569-0.84,9.639-0.84c10.11,0,18.563,3.014,24.355,8.806
			c7.551,7.55,10.38,19.622,7.966,33.994c-2.505,14.914-10.336,29.863-21.485,41.013c-10.562,10.562-22.705,16.363-35.121,16.781
			c-11.477,0.377-22.358-4.022-30.742-12.406C395.423,259.123,391.018,248.205,391.403,236.764z M206.638,222.118
			c-2.413-14.371,0.415-26.444,7.966-33.994c7.55-7.549,19.62-10.38,33.995-7.966c14.914,2.505,29.862,10.336,41.012,21.485
			c10.562,10.562,16.363,22.705,16.781,35.121c0.385,11.439-4.021,22.357-12.404,30.742c-8.384,8.386-19.311,12.805-30.742,12.406
			c-12.415-0.418-24.56-6.221-35.12-16.781C216.975,251.981,209.143,237.033,206.638,222.118z M20.022,236.764
			c0.418-12.415,6.221-24.56,16.781-35.12c11.15-11.15,26.099-18.98,41.013-21.485c3.347-0.563,6.568-0.84,9.639-0.84
			c10.11,0,18.563,3.014,24.355,8.806c7.551,7.55,10.38,19.622,7.966,33.994c-2.505,14.914-10.336,29.863-21.485,41.013
			c-10.562,10.562-22.705,16.363-35.12,16.781c-11.471,0.377-22.358-4.022-30.742-12.406
			C24.044,259.123,19.638,248.205,20.022,236.764z M491.979,362.901c0,13.802-11.229,25.03-25.03,25.03H45.029
			c-13.801,0-25.03-11.227-25.03-25.03v-37.935c0-13.802,11.229-25.03,25.03-25.03h421.92c13.802,0,25.03,11.229,25.03,25.03
			V362.901z"/>
	</g>
</g>
<g>
	<g>
		<path d="M63.997,313.934c-16.541,0-29.999,13.457-29.999,29.999c0,16.541,13.457,29.999,29.999,29.999
			s29.999-13.457,29.999-29.999C93.996,327.392,80.539,313.934,63.997,313.934z M63.997,353.932c-5.514,0-10-4.486-10-10
			c0-5.514,4.486-10,10-10s10,4.486,10,10C73.997,349.447,69.511,353.932,63.997,353.932z"/>
	</g>
</g>
<g>
	<g>
		<path d="M159.993,313.934c-16.541,0-29.999,13.457-29.999,29.999c0,16.541,13.457,29.999,29.999,29.999
			c16.541,0,29.999-13.457,29.999-29.999C189.992,327.392,176.534,313.934,159.993,313.934z M159.993,353.932
			c-5.514,0-10-4.486-10-10c0-5.514,4.486-10,10-10c5.514,0,10,4.486,10,10C169.993,349.447,165.507,353.932,159.993,353.932z"/>
	</g>
</g>
<g>
	<g>
		<path d="M255.989,313.934c-16.541,0-29.999,13.457-29.999,29.999c0,16.541,13.457,29.999,29.999,29.999
			s29.999-13.457,29.999-29.999C285.988,327.392,272.53,313.934,255.989,313.934z M255.989,353.932c-5.514,0-10-4.486-10-10
			c0-5.514,4.486-10,10-10s10,4.486,10,10C265.989,349.447,261.503,353.932,255.989,353.932z"/>
	</g>
</g>
<g>
	<g>
		<path d="M351.985,313.934c-16.541,0-29.999,13.457-29.999,29.999c0,16.541,13.457,29.999,29.999,29.999
			c16.541,0,29.999-13.457,29.999-29.999C381.984,327.392,368.526,313.934,351.985,313.934z M351.985,353.932
			c-5.514,0-10-4.486-10-10c0-5.514,4.486-10,10-10c5.514,0,10,4.486,10,10C361.984,349.447,357.499,353.932,351.985,353.932z"/>
	</g>
</g>
<g>
	<g>
		<path d="M447.981,313.934c-16.541,0-29.999,13.457-29.999,29.999c0,16.541,13.457,29.999,29.999,29.999
			s29.999-13.457,29.999-29.999C477.979,327.392,464.522,313.934,447.981,313.934z M447.981,353.932c-5.514,0-10-4.486-10-10
			c0-5.514,4.486-10,10-10s10,4.486,10,10C457.98,349.447,453.495,353.932,447.981,353.932z"/>
	</g>
</g>
<g>
	<g>
		<path d="M31.007,427.992H10c-5.522,0-10,4.478-10,10s4.478,10,10,10h21.007c5.522,0,10-4.478,10-10S36.528,427.992,31.007,427.992
			z"/>
	</g>
</g>
<g>
	<g>
		<path d="M109.502,427.992H88.495c-5.522,0-10,4.478-10,10s4.478,10,10,10h21.007c5.522,0,10-4.478,10-10
			S115.024,427.992,109.502,427.992z"/>
	</g>
</g>
<g>
	<g>
		<path d="M187.997,427.992H166.99c-5.522,0-10,4.478-10,10s4.478,10,10,10h21.007c5.522,0,10-4.478,10-10
			S193.519,427.992,187.997,427.992z"/>
	</g>
</g>
<g>
	<g>
		<path d="M266.493,427.992h-21.007c-5.522,0-10,4.478-10,10s4.478,10,10,10h21.007c5.522,0,10-4.478,10-10
			S272.014,427.992,266.493,427.992z"/>
	</g>
</g>
<g>
	<g>
		<path d="M344.988,427.992h-21.007c-5.522,0-10,4.478-10,10s4.478,10,10,10h21.007c5.522,0,10-4.478,10-10
			S350.51,427.992,344.988,427.992z"/>
	</g>
</g>
<g>
	<g>
		<path d="M423.483,427.992h-21.007c-5.522,0-10,4.478-10,10s4.478,10,10,10h21.007c5.522,0,10-4.478,10-10
			S429.005,427.992,423.483,427.992z"/>
	</g>
</g>
<g>
	<g>
		<path d="M501.978,427.992h-21.007c-5.522,0-10,4.478-10,10s4.478,10,10,10h21.007c5.522,0,10-4.478,10-10
			S507.5,427.992,501.978,427.992z"/>
	</g>
</g>
<g>
	<g>
		<path d="M179.992,104.006h-71.997c-5.522,0-10,4.478-10,10s4.478,10,10,10h71.997c5.522,0,10-4.478,10-10
			S185.514,104.006,179.992,104.006z"/>
	</g>
</g>
<g>
	<g>
		<path d="M71.066,106.935c-1.859-1.86-4.439-2.93-7.069-2.93s-5.21,1.07-7.07,2.93s-2.93,4.44-2.93,7.07s1.069,5.21,2.93,7.069
			c1.86,1.86,4.44,2.931,7.07,2.931s5.21-1.07,7.069-2.931c1.86-1.859,2.931-4.439,2.931-7.069S72.927,108.795,71.066,106.935z"/>
	</g>
</g>
<g>
	<g>
		<path d="M238.065,64.008H120.83c-5.522,0-10,4.478-10,10c0,5.522,4.478,10,10,10h117.235c5.522,0,10-4.478,10-10
			C248.064,68.486,243.587,64.008,238.065,64.008z"/>
	</g>
</g>
<g>
	<g>
		<path d="M75.165,64.008H10c-5.522,0-10,4.478-10,10c0,5.522,4.478,10,10,10h65.165c5.522,0,10-4.478,10-10
			C85.164,68.486,80.687,64.008,75.165,64.008z"/>
	</g>
</g>
<g>
</g>
<g>
</g>
<g>
</g>
<g>
</g>
<g>
</g>
<g>
</g>
<g>
</g>
<g>
</g>
<g>
</g>
<g>
</g>
<g>
</g>
<g>
</g>
<g>
</g>
<g>
</g>
<g>
</g>
</svg>
